<svg xmlns="http://www.w3.org/2000/svg" xmlns:xlink="http://www.w3.org/1999/xlink" viewBox="0 0 225 225" width="225" height="225" fill="none">
  <g opacity="100%">
    <rect x="0" y="0" width="225" height="225" fill="#000" rx="0" filter="url(#filter_dshadow_0_0_0_00000014)"></rect>
  </g>
  <g opacity="100%">
    <rect filter="url(#filter_dshadow_0_0_0_00000014)" x="7" y="20" width="212" height="186" fill="#4a4735" stroke="#ff9500" stroke-width="6" rx="32"></rect>
    <svg xmlns="http://www.w3.org/2000/svg" height="162" width="162" viewBox="0 0 24 24" fill="#ff9500" x="32" y="32">
      <path fill="none" d="M0 0h24v24H0z"></path>
      <path d="M12 4a2 2 0 1 0 0 4 2 2 0 1 0 0-4zM21 16v-2c-2.24 0-4.16-.96-5.6-2.68l-1.34-1.6A1.98 1.98 0 0 0 12.53 9h-1.05c-.59 0-1.15.26-1.53.72l-1.34 1.6C7.16 13.04 5.24 14 3 14v2c2.77 0 5.19-1.17 7-3.25V15l-3.88 1.55c-.67.27-1.12.93-1.12 1.66C5 19.2 5.8 20 6.79 20H9v-.5a2.5 2.5 0 0 1 2.5-2.5h3c.28 0 .5.22.5.5s-.22.5-.5.5h-3c-.83 0-1.5.67-1.5 1.5v.5h7.21c.99 0 1.79-.8 1.79-1.79 0-.73-.45-1.39-1.12-1.66L14 15v-2.25c1.81 2.08 4.23 3.25 7 3.25z"></path>
    </svg>
  </g>
  <defs>
    <filter id="filter_dshadow_0_0_0_00000014" color-interpolation-filters="sRGB" filterUnits="userSpaceOnUse">
      <feFlood flood-opacity="0" result="bg-fix"></feFlood>
      <feColorMatrix in="SourceAlpha" type="matrix" values="0 0 0 0 0 0 0 0 0 0 0 0 0 0 0 0 0 0 127 0" result="alpha"></feColorMatrix>
      <feOffset dx="0" dy="0"></feOffset>
      <feGaussianBlur stdDeviation="0"></feGaussianBlur>
      <feComposite in2="alpha" operator="out"></feComposite>
      <feColorMatrix type="matrix" values="0 0 0 0 0 0 0 0 0 0 0 0 0 0 0 0 0 0 0.08 0"></feColorMatrix>
      <feBlend mode="normal" in2="bg-fix" result="bg-fix-filter_dshadow_0_0_0_00000014"></feBlend>
      <feBlend in="SourceGraphic" in2="bg-fix-filter_dshadow_0_0_0_00000014" result="shape"></feBlend>
    </filter>
  </defs>
</svg>